<svg width="141" height="105" viewBox="0 0 141 105" fill="none" xmlns="http://www.w3.org/2000/svg">
<g clip-path="url(#clip0)">
<rect width="141" height="105" fill="white"/>
<path d="M141 52.4744C141 45.7957 141 34.7463 136.815 26.3325C140.916 21.0133 138.826 14.575 138.731 14.2922C138.5 13.6065 137.673 13.125 136.723 13.125C136.344 13.125 127.741 13.1811 120.738 17.8522C106.757 14.6294 82.7452 13.125 70.5 13.125C58.2548 13.125 34.2431 14.6294 20.2617 17.8522C13.2586 13.1811 4.65582 13.125 4.27716 13.125C3.32728 13.125 2.50003 13.6065 2.26875 14.2922C2.17408 14.575 0.0839081 21.0133 4.18465 26.3325C0 34.7463 0 45.7957 0 52.4744C0 59.153 0 70.2024 4.18465 78.6162C0.0839081 83.9354 2.17408 90.373 2.26875 90.6565C2.50003 91.3423 3.32728 91.8237 4.27716 91.8237C4.65582 91.8237 13.2586 91.7677 20.2617 87.0965C34.2431 90.3193 58.2548 91.8237 70.5 91.8237C82.7452 91.8237 106.757 90.3193 120.738 87.0965C127.741 91.7677 136.344 91.8237 136.723 91.8237C137.673 91.8237 138.5 91.3423 138.731 90.6565C138.826 90.373 140.916 83.9354 136.815 78.6162C141 70.2024 141 59.153 141 52.4744ZM132.794 79.6304C135.549 82.7082 135.348 86.6367 135.008 88.6282C132.317 88.3542 126.98 87.4226 122.734 84.2615C122.18 83.8489 121.36 83.7047 120.617 83.889C107.281 87.1991 82.828 88.7411 70.5 88.7411C58.172 88.7411 33.7192 87.1991 20.3832 83.889C19.6474 83.7063 18.8148 83.8529 18.2661 84.2615C14.0191 87.4234 8.68018 88.3542 5.9919 88.6282C5.65196 86.6351 5.4508 82.7082 8.20578 79.6304C8.58444 79.2082 8.65867 78.6747 8.40587 78.2029C4.13946 70.2601 4.13947 59.1266 4.13947 52.4744C4.13947 45.8221 4.13946 34.6886 8.40587 26.7451C8.65867 26.274 8.58444 25.7405 8.20578 25.3183C5.4508 22.2406 5.65196 18.312 5.9919 16.3205C8.68341 16.5945 14.0202 17.5254 18.2661 20.6873C18.8202 21.0998 19.6399 21.244 20.3832 21.0598C33.7192 17.7497 58.172 16.2076 70.5 16.2076C82.828 16.2076 107.281 17.7497 120.617 21.0598C121.36 21.244 122.18 21.0998 122.734 20.6873C126.981 17.5246 132.32 16.5945 135.008 16.3205C135.348 18.3128 135.549 22.2406 132.794 25.3183C132.416 25.7405 132.341 26.274 132.594 26.7451C136.861 34.6886 136.861 45.8221 136.861 52.4744C136.861 59.1266 136.861 70.2601 132.594 78.2029C132.341 78.6747 132.416 79.2082 132.794 79.6304Z" fill="#9700CC"/>
<path d="M121.457 24.6382C120.744 24.5894 120.046 24.8209 119.615 25.2486C119.444 25.4185 115.388 29.5008 112.699 36.9758C112.403 37.7977 113.059 38.6428 114.162 38.8631C115.266 39.0842 116.402 38.5956 116.697 37.7736C118.034 34.0558 119.743 31.2408 121.033 29.4367C128.204 41.7414 127.688 53.8042 125.875 61.9817C124.651 67.5004 122.699 71.9993 121.262 74.8247C115.509 64.1342 113.415 53.8306 115.035 44.1495C115.176 43.3051 114.371 42.5345 113.237 42.4296C112.103 42.3238 111.068 42.9238 110.928 43.7682C109.045 55.0162 111.889 67.0069 119.383 79.4085C120.084 80.5693 122.356 80.6045 123.121 79.4646C123.307 79.1882 127.702 72.5672 129.934 62.5905C131.998 53.366 132.493 39.4407 123.121 25.4842C122.802 25.0059 122.171 24.6863 121.457 24.6382Z" fill="#9700CC"/>
<path d="M56.9327 53.4813C56.597 52.931 55.8602 52.5769 55.048 52.5769H39.596C38.4525 52.5769 37.5262 53.2674 37.5262 54.1182C37.5262 54.9689 38.4525 55.6595 39.596 55.6595H50.4868L38.0383 66.2539C36.8905 67.2312 37.8554 68.8101 39.596 68.8101H55.048C56.1904 68.8101 57.1177 68.1196 57.1177 67.2688C57.1177 66.4181 56.1904 65.7275 55.048 65.7275H44.1561L56.6057 55.1332C57.1403 54.6782 57.2683 54.0317 56.9327 53.4813Z" fill="#9700CC"/>
<path d="M72.7074 50.9331H65.6914L74.391 41.8632C75.3527 40.861 74.3555 39.4263 72.7074 39.4263H61.6703C60.5278 39.4263 59.6006 40.116 59.6006 40.9676C59.6006 41.8183 60.5278 42.5089 61.6703 42.5089H68.6863L59.9867 51.5788C59.025 52.5809 60.0222 54.0157 61.6703 54.0157H72.7074C73.8499 54.0157 74.7772 53.3251 74.7772 52.4744C74.7772 51.6236 73.8499 50.9331 72.7074 50.9331Z" fill="#9700CC"/>
<path d="M85.952 37.7824H83.4692L87.6076 33.6729C88.6123 32.6755 87.6226 31.2071 85.952 31.2071H79.3297C78.1873 31.2071 77.26 31.8969 77.26 32.7484C77.26 33.5992 78.1873 34.2897 79.3297 34.2897H81.8136L77.6741 38.3993C76.6694 39.3958 77.6591 40.865 79.3297 40.865H85.952C87.0944 40.865 88.0217 40.1745 88.0217 39.3237C88.0217 38.4722 87.0944 37.7824 85.952 37.7824Z" fill="#9700CC"/>
</g>
<defs>
<clipPath id="clip0">
<rect width="141" height="105" fill="white"/>
</clipPath>
</defs>
</svg>
