<svg width="142" height="168" viewBox="0 0 142 168" fill="none" xmlns="http://www.w3.org/2000/svg">
<path d="M36.1491 43.855C37.0202 44.8496 38.4043 44.8363 39.2597 43.8232C40.116 42.8112 40.1273 41.1736 39.2866 40.1431L25.975 24.3941C25.1039 23.3995 23.7198 23.4128 22.8644 24.4259C22.0081 25.438 21.9968 27.0755 22.8375 28.106L36.1491 43.855Z" fill="#9700CC"/>
<path d="M26.625 83.999C26.625 82.5491 25.6309 81.374 24.4062 81.374H6.65624C5.43073 81.374 4.43749 82.5491 4.43749 83.999C4.43749 85.4489 5.43073 86.624 6.65624 86.624H24.4062C25.6309 86.624 26.625 85.4489 26.625 83.999Z" fill="#9700CC"/>
<path d="M36.1491 124.142L22.8375 139.892C22.2611 140.55 22.0289 141.527 22.2325 142.445C22.4353 143.363 23.0412 144.08 23.8169 144.319C24.5926 144.559 25.4177 144.286 25.9749 143.604L39.2866 127.854C40.1273 126.823 40.116 125.187 39.2597 124.174C38.4043 123.162 37.0202 123.147 36.1491 124.142Z" fill="#9700CC"/>
<path d="M127.465 98.1003C123.422 101.192 118.678 102.748 113.866 102.562C99.3029 102.334 87.6415 88.2032 87.7966 70.9715C87.8937 57.6722 94.7822 45.7653 105.224 40.8424C106.106 40.4456 106.68 39.4346 106.655 38.32C106.631 37.2044 106.014 36.2292 105.116 35.8878C100.949 34.5414 96.6326 33.9467 92.3138 34.1251C85.6481 34.1333 79.0871 36.0949 73.2178 39.8335V7.87511C73.2178 6.4252 72.2246 5.25011 70.9991 5.25011C69.7736 5.25011 68.7803 6.4252 68.7803 7.87511V34.405C47.3495 37.1069 31.0928 58.5007 31.0928 83.9991C31.0928 109.497 47.3495 130.889 68.7803 133.592V160.123C68.7803 161.572 69.7736 162.748 70.9991 162.748C72.2246 162.748 73.2178 161.572 73.2178 160.123V128.165C83.7352 134.853 96.2122 135.707 107.312 130.499C118.411 125.29 127.001 114.548 130.782 101.149C131.092 100.085 130.795 98.9093 130.046 98.2192C129.296 97.5312 128.258 97.483 127.465 98.1003ZM35.4991 83.9991C35.5286 61.4026 49.8161 42.3908 68.7803 39.7104V128.288C49.8161 125.607 35.5286 106.596 35.4991 83.9991ZM92.3138 128.623C85.5605 128.621 78.9433 126.371 73.2178 122.133V45.8638C78.9433 41.6248 85.5605 39.3772 92.3138 39.3741C94.0247 39.3741 95.8508 39.4141 97.6657 39.5843C88.8245 46.6226 83.4752 58.3571 83.3591 70.9633C83.2048 91.0927 96.8519 107.574 113.866 107.805C117.397 107.871 120.911 107.21 124.248 105.848C118.056 119.924 105.726 128.716 92.3138 128.623Z" fill="#9700CC"/>
<path d="M137.445 61.0754C137.18 60.1392 136.495 59.4594 135.67 59.3138L127.642 57.8598L124.031 48.7594C123.665 47.8376 122.882 47.2511 122.022 47.2511C121.163 47.2511 120.38 47.8376 120.014 48.7594L116.403 57.8598L108.375 59.3138C107.554 59.4624 106.872 60.1423 106.607 61.0744C106.343 62.0054 106.541 63.0349 107.121 63.7383L113.004 70.874L111.613 80.9639C111.476 81.9554 111.831 82.9521 112.524 83.5314C113.219 84.1087 114.13 84.1692 114.874 83.6832L122.029 78.992L129.185 83.6709C129.512 83.8862 129.882 84 130.256 83.999C130.908 83.999 131.525 83.6606 131.946 83.0731C132.369 82.4876 132.551 81.7114 132.446 80.9505L131.055 70.874L136.93 63.7527C137.514 63.0452 137.713 62.0105 137.445 61.0754ZM127.097 68.1444C126.606 68.7402 126.382 69.5769 126.496 70.3982L127.333 76.4624L123.101 73.6959C122.433 73.2601 121.625 73.2601 120.958 73.6959L116.726 76.4624L117.562 70.3982C117.677 69.5769 117.453 68.7402 116.962 68.1444L113.322 63.7281L118.251 62.836C118.982 62.7047 119.609 62.151 119.923 61.3584L122.029 56.053L124.135 61.3584C124.449 62.151 125.077 62.7047 125.808 62.836L130.737 63.7281L127.097 68.1444Z" fill="#9700CC"/>
</svg>
